<svg width="189" height="43" viewBox="0 0 189 43" fill="none" xmlns="http://www.w3.org/2000/svg">
<mask id="mask0_30_270" style="mask-type:luminance" maskUnits="userSpaceOnUse" x="0" y="0" width="50" height="43">
<path d="M0 0H49.918V42.387H0V0Z" fill="white"/>
</mask>
<g mask="url(#mask0_30_270)">
<path fill-rule="evenodd" clip-rule="evenodd" d="M28.803 28.0001C28.803 28.0001 23.87 33.9991 16.309 30.4651C16.309 30.4651 11.068 27.5881 11.071 21.2341C11.074 14.8821 16.319 12.0111 16.319 12.0111C23.884 8.48511 28.809 14.4881 28.809 14.4881L35.423 21.2471L28.803 28.0001ZM36.363 7.35311C36.363 7.35311 26.266 -4.95089 10.76 2.27311C10.76 2.27311 0.00800251 8.16011 2.51163e-06 21.1821C-0.00599749 34.2051 10.74 40.1021 10.74 40.1021C26.239 47.3471 36.35 35.0511 36.35 35.0511L49.918 21.2071L36.363 7.35311Z" fill="#0986B3"/>
</g>
<path fill-rule="evenodd" clip-rule="evenodd" d="M101.041 30.5239C99.281 31.3079 97.183 31.6999 94.745 31.6989C91.766 31.6969 89.449 30.8569 87.789 29.1799C86.129 27.5019 85.299 25.1619 85.3 22.1599C85.302 19.0999 86.14 16.7469 87.815 15.0979C89.487 13.4519 91.875 12.6279 94.975 12.6299C96.955 12.6309 98.921 12.8649 100.877 13.3339V16.2899C98.659 15.5119 96.802 15.1219 95.307 15.1209C93.391 15.1209 91.913 15.7269 90.874 16.9409C89.835 18.1559 89.314 19.8779 89.312 22.1129C89.312 24.3039 89.87 26.0149 90.986 27.2429C92.103 28.4689 93.653 29.0859 95.641 29.0869C97.425 29.0869 99.225 28.6379 101.042 27.7379L101.041 30.5239ZM112.441 27.8549L112.442 25.1179H111.585C109.236 25.1179 108.061 25.8519 108.06 27.3249C108.06 27.8249 108.23 28.2449 108.57 28.5829C108.91 28.9229 109.328 29.0929 109.828 29.0929C110.678 29.0939 111.549 28.6809 112.441 27.8549ZM112.441 29.8059C111.229 30.9759 109.931 31.5599 108.551 31.5589C107.371 31.5589 106.413 31.1969 105.679 30.4789C104.941 29.7559 104.576 28.8239 104.576 27.6789C104.577 26.1899 105.171 25.0429 106.362 24.2389C107.552 23.4319 109.258 23.0309 111.473 23.0319H112.443L112.444 21.8049C112.445 20.4059 111.648 19.7069 110.052 19.7059C108.637 19.7059 107.206 20.1059 105.757 20.9059L105.758 18.4029C107.404 17.7829 109.031 17.4729 110.642 17.4729C114.168 17.4749 115.93 18.8789 115.928 21.6839L115.925 27.6479C115.925 28.7039 116.265 29.2319 116.945 29.2319C117.067 29.2319 117.227 29.2149 117.423 29.1819L117.508 31.2199C116.739 31.4499 116.059 31.5629 115.47 31.5629C113.982 31.5629 113.025 30.9759 112.6 29.8059H112.441ZM121.113 31.2579L121.12 17.7839L124.753 17.7869L124.752 20.3269C125.692 18.4289 127.125 17.4819 129.048 17.4829C129.275 17.4829 129.5 17.5059 129.722 17.5559L129.721 20.7959C129.206 20.6079 128.727 20.5139 128.285 20.5139C126.835 20.5119 125.659 21.2439 124.75 22.7079L124.746 31.2609L121.113 31.2579ZM140.488 31.1959C139.622 31.4489 138.94 31.5759 138.44 31.5749C135.291 31.5739 133.717 30.0999 133.718 27.1549L133.722 20.0619L132.213 20.0609L132.215 17.7909L133.725 17.7919V15.5209L137.355 15.1059V17.7939L140.239 17.7959V20.0649L137.353 20.0639L137.349 26.6779C137.349 28.3299 138.023 29.1569 139.372 29.1579C139.684 29.1579 140.058 29.0999 140.489 28.9869L140.488 31.1959ZM147.3 23.2099L152.137 23.2129C152.137 20.9129 151.399 19.7659 149.917 19.7649C148.412 19.7639 147.54 20.9119 147.301 23.2109L147.3 23.2099ZM155.703 30.8229C153.977 31.3299 152.342 31.5829 150.796 31.5819C148.544 31.5809 146.771 30.9409 145.469 29.6649C144.169 28.3879 143.519 26.6449 143.521 24.4369C143.521 22.3499 144.119 20.6719 145.31 19.3999C146.5 18.1279 148.073 17.4929 150.03 17.4949C152 17.4949 153.44 18.1169 154.347 19.3609C155.256 20.6059 155.707 22.5729 155.706 25.2649L147.349 25.2599C147.594 27.8299 149.006 29.1149 151.582 29.1159C152.801 29.1159 154.174 28.8349 155.704 28.2709L155.703 30.8229ZM159.96 31.2789L159.968 17.8049L163.601 17.8069L163.6 20.3479C164.785 18.4499 166.315 17.5029 168.189 17.5039C169.392 17.5049 170.341 17.8849 171.036 18.6459C171.732 19.4069 172.079 20.4469 172.078 21.7639L172.073 31.2859L168.44 31.2839L168.444 22.6579C168.444 21.1279 167.939 20.3629 166.924 20.3619C165.771 20.3609 164.661 21.1749 163.599 22.8009L163.594 31.2809L159.96 31.2789Z" fill="#404042"/>
<mask id="mask1_30_270" style="mask-type:luminance" maskUnits="userSpaceOnUse" x="176" y="17" width="13" height="15">
<path d="M176.71 17.8149H188.688V31.2949H176.71V17.8149Z" fill="white"/>
</mask>
<g mask="url(#mask1_30_270)">
<path fill-rule="evenodd" clip-rule="evenodd" d="M176.71 31.2879L176.712 28.8719L184.252 20.0889L177.059 20.0849L177.061 17.8149L188.548 17.8209L188.546 20.0919L181.007 28.8739L188.689 28.8779L188.687 31.2949L176.71 31.2879Z" fill="#404042"/>
</g>
<path fill-rule="evenodd" clip-rule="evenodd" d="M36.39 0.427002L51.892 0.437002L72.655 21.427L51.974 41.983L36.368 41.974L57.152 21.212L36.39 0.427002Z" fill="#0199CB"/>
</svg>
