<svg width="361" height="120" viewBox="0 0 361 120" fill="none" xmlns="http://www.w3.org/2000/svg">
<mask id="mask0_10_2544" style="mask-type:luminance" maskUnits="userSpaceOnUse" x="71" y="9" width="42" height="50">
<path d="M71.0975 16.755C96.3242 25.1882 104.278 46.7302 105.103 55.8267L112.523 58.9289C109.061 27.1721 83.4642 13.0319 71.0975 9.93164V16.755Z" fill="white"/>
</mask>
<g mask="url(#mask0_10_2544)">
<path fill-rule="evenodd" clip-rule="evenodd" d="M71.0974 16.755C96.3241 25.1882 104.278 46.7302 105.103 55.8267L112.523 58.9289C109.061 27.1721 83.464 13.0319 71.0974 9.93164V16.755Z" fill="url(#paint0_linear_10_2544)"/>
</g>
<mask id="mask1_10_2544" style="mask-type:luminance" maskUnits="userSpaceOnUse" x="0" y="9" width="42" height="50">
<path d="M0 58.3083L7.41997 55.206C8.24307 46.1115 16.1969 24.5675 41.4236 16.1343V9.31299C29.059 12.4153 3.46225 26.5514 0 58.3083Z" fill="white"/>
</mask>
<g mask="url(#mask1_10_2544)">
<path fill-rule="evenodd" clip-rule="evenodd" d="M0 58.3083L7.41997 55.206C8.24307 46.1115 16.1969 24.5675 41.4236 16.1343V9.31299C29.059 12.4153 3.46225 26.5514 0 58.3083Z" fill="url(#paint1_linear_10_2544)"/>
</g>
<mask id="mask2_10_2544" style="mask-type:luminance" maskUnits="userSpaceOnUse" x="47" y="0" width="20" height="116">
<path d="M47.875 0V115.733H54.5993V6.70406H59.4913V115.733H66.2176V0H47.875Z" fill="white"/>
</mask>
<g mask="url(#mask2_10_2544)">
<path fill-rule="evenodd" clip-rule="evenodd" d="M47.875 0V115.733H54.5993V6.70406H59.4913V115.733H66.2176V0H47.875Z" fill="url(#paint2_linear_10_2544)"/>
</g>
<mask id="mask3_10_2544" style="mask-type:luminance" maskUnits="userSpaceOnUse" x="71" y="25" width="42" height="88">
<path d="M71.0975 112.8H77.2819V35.462L83.4642 38.5805V112.804C106.216 100.331 112.317 74.7582 112.523 63.5301L94.5931 54.7976V87.8569L100.773 78.4995V66.0237L105.722 67.8943C103.868 84.7364 93.3554 96.5853 89.0296 100.952V35.46L71.0975 25.4797V112.802V112.8Z" fill="white"/>
</mask>
<g mask="url(#mask3_10_2544)">
<path fill-rule="evenodd" clip-rule="evenodd" d="M71.0974 112.8H77.2817V35.462L83.464 38.5805V112.804C106.215 100.331 112.317 74.7582 112.523 63.5301L94.593 54.7976V87.8569L100.773 78.4995V66.0237L105.722 67.8943C103.867 84.7364 93.3553 96.5853 89.0295 100.952V35.46L71.0974 25.4797V112.802V112.8Z" fill="url(#paint3_linear_10_2544)"/>
</g>
<mask id="mask4_10_2544" style="mask-type:luminance" maskUnits="userSpaceOnUse" x="0" y="25" width="42" height="88">
<path d="M23.4935 35.46V100.95C19.1657 96.5833 8.65562 84.7323 6.80114 67.8923L11.7458 66.0216V78.4954L17.9301 87.8528V54.7956L0 63.5281C0.206279 74.7561 6.30769 100.329 29.059 112.802V38.5784L35.2413 35.46V112.8H41.4236V25.4797L23.4935 35.46Z" fill="white"/>
</mask>
<g mask="url(#mask4_10_2544)">
<path fill-rule="evenodd" clip-rule="evenodd" d="M23.4935 35.46V100.95C19.1657 96.5833 8.65562 84.7323 6.80114 67.8923L11.7458 66.0216V78.4954L17.9301 87.8528V54.7956L0 63.5281C0.206279 74.7561 6.30769 100.329 29.059 112.802V38.5784L35.2413 35.46V112.8H41.4236V25.4797L23.4935 35.46Z" fill="url(#paint4_linear_10_2544)"/>
</g>
<mask id="mask5_10_2544" style="mask-type:luminance" maskUnits="userSpaceOnUse" x="34" y="108" width="10" height="10">
<path d="M34.7023 112.93C34.7023 115.433 36.7347 117.464 39.2445 117.464C41.7522 117.464 43.7887 115.433 43.7887 112.93C43.7887 110.422 41.7522 108.392 39.2445 108.392C36.7367 108.392 34.7023 110.422 34.7023 112.93Z" fill="white"/>
</mask>
<g mask="url(#mask5_10_2544)">
<path fill-rule="evenodd" clip-rule="evenodd" d="M34.703 112.93C34.703 115.433 36.7355 117.464 39.2452 117.464C41.7529 117.464 43.7894 115.433 43.7894 112.93C43.7894 110.422 41.7529 108.392 39.2452 108.392C36.7375 108.392 34.703 110.422 34.703 112.93Z" fill="url(#paint5_linear_10_2544)"/>
</g>
<mask id="mask6_10_2544" style="mask-type:luminance" maskUnits="userSpaceOnUse" x="45" y="110" width="11" height="10">
<path d="M45.8429 115.464C45.8429 117.968 47.9785 120 50.6116 120C53.2487 120 55.3803 117.968 55.3803 115.464C55.3803 112.96 53.2487 110.928 50.6116 110.928C47.9785 110.928 45.8429 112.962 45.8429 115.464Z" fill="white"/>
</mask>
<g mask="url(#mask6_10_2544)">
<path fill-rule="evenodd" clip-rule="evenodd" d="M45.8435 115.464C45.8435 117.968 47.9791 120 50.6122 120C53.2493 120 55.3809 117.968 55.3809 115.464C55.3809 112.96 53.2493 110.928 50.6122 110.928C47.9791 110.928 45.8435 112.962 45.8435 115.464Z" fill="url(#paint6_linear_10_2544)"/>
</g>
<mask id="mask7_10_2544" style="mask-type:luminance" maskUnits="userSpaceOnUse" x="70" y="108" width="10" height="10">
<path d="M70.8163 112.93C70.8163 115.433 72.8508 117.464 75.3605 117.464C77.8682 117.464 79.9027 115.433 79.9027 112.93C79.9047 110.422 77.8682 108.392 75.3605 108.392C72.8528 108.392 70.8163 110.422 70.8163 112.93Z" fill="white"/>
</mask>
<g mask="url(#mask7_10_2544)">
<path fill-rule="evenodd" clip-rule="evenodd" d="M70.816 112.93C70.816 115.433 72.8505 117.464 75.3602 117.464C77.8679 117.464 79.9024 115.433 79.9024 112.93C79.9044 110.422 77.8679 108.392 75.3602 108.392C72.8525 108.392 70.816 110.422 70.816 112.93Z" fill="url(#paint7_linear_10_2544)"/>
</g>
<mask id="mask8_10_2544" style="mask-type:luminance" maskUnits="userSpaceOnUse" x="59" y="110" width="10" height="10">
<path d="M59.309 115.464C59.309 117.968 61.3434 120 63.8532 120C66.3609 120 68.3953 117.968 68.3953 115.464C68.3953 112.96 66.3609 110.928 63.8532 110.928C61.3455 110.928 59.309 112.962 59.309 115.464Z" fill="white"/>
</mask>
<g mask="url(#mask8_10_2544)">
<path fill-rule="evenodd" clip-rule="evenodd" d="M59.3083 115.464C59.3083 117.968 61.3428 120 63.8526 120C66.3603 120 68.3947 117.968 68.3947 115.464C68.3947 112.96 66.3603 110.928 63.8526 110.928C61.3448 110.928 59.3083 112.962 59.3083 115.464Z" fill="url(#paint8_linear_10_2544)"/>
</g>
<path fill-rule="evenodd" clip-rule="evenodd" d="M135.954 68.0102C135.954 57.7202 143.936 50.4182 155.112 50.4182C162.326 50.4182 168.01 53.5322 170.5 59.1182L162.772 63.2462C160.922 60.0082 158.176 58.5462 155.046 58.5462C150.002 58.5462 146.042 62.0402 146.042 68.0102C146.042 73.9782 150.002 77.4702 155.046 77.4702C158.176 77.4702 160.922 76.0742 162.772 72.7702L170.5 76.9622C168.01 82.4242 162.326 85.6002 155.112 85.6002C143.936 85.6002 135.954 78.2982 135.954 68.0102Z" fill="black"/>
<path fill-rule="evenodd" clip-rule="evenodd" d="M176.249 85.0921H186.209V50.9261H176.249V85.0921ZM217.625 83.4401C215.581 84.9001 212.581 85.6001 209.515 85.6001C201.405 85.6001 196.681 81.4721 196.681 73.3421V59.3101H191.381V51.6901H196.681V43.3701H206.641V51.6901H215.199V59.3101H206.639V73.2141C206.639 76.1361 208.239 77.7261 210.921 77.7261C212.389 77.7261 213.857 77.2801 214.941 76.4541L217.625 83.4401ZM223.245 85.0921H233.205V50.9261H223.245V85.0921ZM268.071 66.9301C268.071 61.9101 264.303 58.5481 259.069 58.5481C253.833 58.5481 250.001 61.9121 250.001 66.9301C250.001 71.9461 253.833 75.3101 259.069 75.3101C264.303 75.3101 268.071 71.9461 268.071 66.9301ZM277.903 50.9261V79.3761C277.903 92.0761 271.009 97.9181 258.621 97.9181C252.105 97.9181 245.787 96.3301 241.765 93.2181L245.723 86.1061C248.659 88.4561 253.449 89.9801 257.853 89.9801C264.879 89.9801 267.945 86.8041 267.945 80.6481V79.1861C265.325 82.0421 261.559 83.4401 257.089 83.4401C247.575 83.4401 239.913 76.8981 239.913 66.9301C239.913 56.9601 247.575 50.4181 257.089 50.4181C261.877 50.4181 265.835 52.0061 268.453 55.3081V50.9281H277.903V50.9261ZM310.693 68.0101C310.693 62.1041 306.927 58.5481 301.947 58.5481C296.965 58.5481 293.133 62.1041 293.133 68.0081C293.133 73.9141 296.965 77.4701 301.947 77.4701C306.927 77.4701 310.693 73.9141 310.693 68.0101ZM283.043 68.0101C283.043 57.7201 291.025 50.4181 301.947 50.4181C312.865 50.4181 320.781 57.7201 320.781 68.0101C320.781 78.2981 312.865 85.6001 301.947 85.6001C291.025 85.6001 283.043 78.2981 283.043 68.0101ZM360.563 50.9281L346.069 85.0921H335.789L321.357 50.9281H331.639L341.153 74.1701L350.987 50.9281H360.563Z" fill="black"/>
<defs>
<linearGradient id="paint0_linear_10_2544" x1="-6643.3" y1="7190.1" x2="6252.32" y2="2226.98" gradientUnits="userSpaceOnUse">
<stop stop-color="#1C8A70"/>
<stop offset="1" stop-color="#00C659"/>
</linearGradient>
<linearGradient id="paint1_linear_10_2544" x1="-2300.88" y1="4797.77" x2="10594.5" y2="-165.221" gradientUnits="userSpaceOnUse">
<stop stop-color="#1C8A70"/>
<stop offset="1" stop-color="#00C659"/>
</linearGradient>
<linearGradient id="paint2_linear_10_2544" x1="756.415" y1="9028.65" x2="3370.51" y2="8008.07" gradientUnits="userSpaceOnUse">
<stop stop-color="#1C8A70"/>
<stop offset="1" stop-color="#00C659"/>
</linearGradient>
<linearGradient id="paint3_linear_10_2544" x1="-398.587" y1="8199.69" x2="5195.18" y2="6034.58" gradientUnits="userSpaceOnUse">
<stop stop-color="#1C8A70"/>
<stop offset="1" stop-color="#00C659"/>
</linearGradient>
<linearGradient id="paint4_linear_10_2544" x1="1027.18" y1="6989.12" x2="6620.6" y2="4824.11" gradientUnits="userSpaceOnUse">
<stop stop-color="#1C8A70"/>
<stop offset="1" stop-color="#00C659"/>
</linearGradient>
<linearGradient id="paint5_linear_10_2544" x1="-4138.78" y1="2330.12" x2="11614.2" y2="-3707.51" gradientUnits="userSpaceOnUse">
<stop stop-color="#1C8A70"/>
<stop offset="1" stop-color="#00C659"/>
</linearGradient>
<linearGradient id="paint6_linear_10_2544" x1="-5203.88" y1="2455.22" x2="11155.2" y2="-3514.05" gradientUnits="userSpaceOnUse">
<stop stop-color="#1C8A70"/>
<stop offset="1" stop-color="#00C659"/>
</linearGradient>
<linearGradient id="paint7_linear_10_2544" x1="-6973.6" y1="3426.6" x2="8776.87" y2="-2609.11" gradientUnits="userSpaceOnUse">
<stop stop-color="#1C8A70"/>
<stop offset="1" stop-color="#00C659"/>
</linearGradient>
<linearGradient id="paint8_linear_10_2544" x1="-5931.72" y1="3026.7" x2="9821.26" y2="-3009.96" gradientUnits="userSpaceOnUse">
<stop stop-color="#1C8A70"/>
<stop offset="1" stop-color="#00C659"/>
</linearGradient>
</defs>
</svg>
