<svg width="604" height="94" viewBox="0 0 604 94" fill="none" xmlns="http://www.w3.org/2000/svg">
<g clip-path="url(#clip0_44_2428)">
<path d="M44.57 0.625C44.57 0.625 44.51 0.625 44.49 0.625C43.66 0.795 39.96 2.185 37.07 3.405C33.55 4.905 28.27 6.995 23.7 8.715C21.72 9.455 19.48 10.335 18.71 10.675L17.32 11.285L17.38 30.745C17.44 50.165 17.44 50.205 17.87 52.105C18.78 56.135 20.28 59.765 22.13 62.415C24.31 65.545 28.25 69.145 31.19 70.695C32.75 71.515 35.46 72.465 36.36 72.505C36.55 72.505 36.9 72.195 37.17 71.765C37.43 71.345 37.65 70.965 37.65 70.905C37.65 70.845 36.93 70.475 36.05 70.065C33 68.655 29.24 65.885 27.08 63.465C25.87 62.105 23.88 59.205 23.09 57.635C21.85 55.205 20.91 52.075 20.65 49.535C20.58 48.855 20.5 40.605 20.47 31.215C20.44 21.825 20.38 13.985 20.35 13.795C20.29 13.505 20.94 13.195 24.27 11.875C28.93 10.035 35.39 7.445 37.56 6.555C38.4 6.205 39.72 5.695 40.5 5.415C41.28 5.135 42.52 4.625 43.25 4.285L44.58 3.665L45.81 4.195C46.49 4.485 48.75 5.405 50.84 6.235C52.93 7.065 56 8.315 57.68 9.015C59.35 9.715 62.45 10.985 64.57 11.845L68.42 13.405V30.885C68.41 42.295 68.33 48.745 68.2 49.475C67.34 54.255 65.39 58.585 62.36 62.445C60.68 64.595 59.1 66.135 57.12 67.565C55.52 68.715 52.43 70.425 51.94 70.425C51.59 70.425 51.62 70.485 52.31 71.225C53.31 72.305 53.53 72.355 55.02 71.845C57.54 70.995 60.72 68.935 62.83 66.785C67.11 62.435 70.07 56.765 71.17 50.775C71.5 49.005 71.52 47.605 71.49 30.085L71.46 11.295L69.97 10.655C69.15 10.305 67.67 9.695 66.67 9.295C64.36 8.365 54.3 4.295 49.03 2.165C46.42 1.115 45.02 0.625 44.57 0.625ZM46.41 14.045C46.18 14.045 44.68 15.065 43.83 15.805C43.09 16.445 43.09 16.455 43 18.105L42.91 19.755L41.65 20.495C40.2 21.355 38.55 22.985 37.58 24.525C35.31 28.145 35.41 32.995 37.92 40.885C38.73 43.435 39.22 45.295 39.29 46.145L39.4 47.465H53.58L53.7 46.975C53.9 46.185 53.64 44.725 53.14 43.725C52.46 42.385 51.52 41.265 48.43 38.145C46.08 35.765 45.55 35.325 44.71 35.045C43.16 34.525 41.55 33.055 40.67 31.325C40.34 30.685 40.21 30.055 40.15 28.785C40.06 26.905 40.13 26.775 41.25 26.765H41.91L41.94 27.945C41.99 30.045 43.14 31.905 44.98 32.835C45.79 33.255 46.14 33.305 48.02 33.305C50.07 33.305 50.16 33.325 50.96 33.885C51.41 34.205 52.11 34.945 52.51 35.545L53.24 36.635H54.51C55.33 36.625 56.21 36.465 57.01 36.185L58.24 35.745L58.29 33.415L58.34 31.085L57.61 30.395C56.43 29.275 53.61 25.775 50.86 21.985C50.49 21.475 49.85 21.035 48.5 20.375L46.65 19.455L46.6 16.745C46.57 15.255 46.48 14.045 46.4 14.045H46.41ZM39.03 16.895C38.6 16.895 36.87 18.255 36.97 18.525C37.14 18.975 38.5 20.665 38.7 20.675C38.8 20.675 39.21 20.305 39.6 19.855L40.31 19.025L39.79 17.965C39.51 17.385 39.17 16.905 39.04 16.895H39.03ZM34.89 19.935C34.61 19.935 33.4 21.815 33.56 21.985C34 22.435 35.69 23.705 35.84 23.715C35.94 23.715 36.32 23.375 36.67 22.955L37.31 22.185L36.2 21.065C35.59 20.445 34.99 19.945 34.88 19.945L34.89 19.935ZM9.27 20.405C7.78 20.405 6.57 21.615 6.57 23.105C6.57 24.595 7.78 25.805 9.27 25.805C10.76 25.805 11.97 24.595 11.97 23.105C11.97 21.615 10.76 20.405 9.27 20.405ZM79.9 20.405C78.41 20.405 77.2 21.615 77.2 23.105C77.2 24.595 78.41 25.805 79.9 25.805C81.39 25.805 82.6 24.595 82.6 23.105C82.6 21.615 81.39 20.405 79.9 20.405ZM47.81 23.915C48.48 23.915 48.71 24.015 49.03 24.415C49.61 25.145 49.54 25.875 48.84 26.465C48.1 27.095 47.67 27.085 46.97 26.435C46.2 25.725 46.08 25.085 46.58 24.435C46.91 24.015 47.14 23.925 47.81 23.925V23.915ZM32.5 23.925C32.18 23.915 31.3 25.925 31.56 26.085C31.63 26.135 32.2 26.355 32.82 26.585C33.44 26.815 34.03 27.075 34.13 27.165C34.43 27.435 34.51 27.365 34.77 26.615C34.9 26.225 35.03 25.775 35.05 25.625C35.09 25.335 33.02 23.935 32.51 23.915L32.5 23.925ZM1.42 28.285L1.29 30.095C1.09 32.815 1.37 34.095 2.56 35.875C3.34 37.045 5.55 39.035 5.77 38.775C5.84 38.695 5.99 37.805 6.11 36.795C6.4 34.305 6.38 33.455 6.01 32.355C5.61 31.175 4.19 29.735 2.6 28.895L1.43 28.275L1.42 28.285ZM87.56 28.425C87.35 28.425 87.02 28.565 86.52 28.825C84.18 30.005 82.65 31.965 82.65 33.785C82.65 34.625 83.01 38.205 83.14 38.685C83.26 39.105 83.51 38.945 84.87 37.645C87.02 35.565 87.96 33.235 87.96 29.905C87.96 28.855 87.92 28.435 87.56 28.425ZM31.18 28.565C31.08 28.565 31.02 28.575 31 28.595C30.92 28.685 30.8 29.235 30.74 29.815L30.62 30.885L31.99 31.075C34.14 31.375 34.12 31.385 34.18 30.175L34.24 29.135L32.69 28.785C32.05 28.645 31.46 28.555 31.18 28.565ZM74.42 29.375L74.54 30.865C74.75 33.605 75.74 35.575 77.6 36.985C79.2 38.195 80.61 39.085 80.78 38.985C80.87 38.935 80.94 38.585 80.94 38.225C80.94 37.185 80.39 34.785 79.9 33.675C79.07 31.805 77.18 30.235 74.89 29.515L74.43 29.375H74.42ZM14.45 29.445C14.35 29.445 14.19 29.475 13.97 29.515C12.76 29.745 10.95 30.675 10.12 31.515C8.98 32.655 8.41 34.015 8.21 36.125C7.99 38.365 7.99 38.925 8.2 38.925C8.29 38.925 8.95 38.525 9.67 38.045C11.46 36.835 12.65 35.645 13.32 34.385C13.94 33.225 14.67 30.805 14.67 29.935C14.67 29.605 14.67 29.475 14.49 29.455C14.49 29.455 14.46 29.455 14.45 29.455V29.445ZM54.64 31.795H55.4C56.14 31.795 56.16 31.815 56.33 32.595C56.42 33.035 56.45 33.525 56.38 33.685C56.25 34.015 55.64 34.055 54.96 33.785C54.58 33.635 54.53 33.495 54.58 32.705L54.64 31.795ZM30.87 33.035L30.95 34.035C31.08 35.595 30.99 35.535 32.76 35.395C33.62 35.325 34.36 35.245 34.39 35.215C34.42 35.185 34.39 34.685 34.32 34.105L34.19 33.045H30.87V33.035ZM34.73 37.165L33.4 37.295C32.67 37.365 32.01 37.455 31.95 37.495C31.89 37.535 31.97 38.005 32.14 38.525L32.44 39.485L33.96 39.435C35.36 39.385 35.47 39.355 35.42 39.005C35.39 38.795 35.22 38.295 35.05 37.895L34.73 37.165ZM0 38.885L0.11 40.935C0.23 43.125 0.62 44.575 1.44 45.865C2.29 47.205 4.87 49.315 5.71 49.345C5.84 49.345 5.95 49.335 5.95 49.305C5.94 47.945 5.29 43.425 5.03 42.815C4.44 41.475 2.71 40.005 0.75 39.195L0.01 38.885H0ZM13.97 38.915C13.9 38.915 13.04 39.305 12.06 39.775C10.08 40.735 9.07 41.625 8.39 43.005C7.97 43.865 7.93 44.155 7.95 46.445C7.96 47.825 8.03 49.085 8.09 49.255C8.18 49.495 8.5 49.295 9.64 48.265C10.43 47.555 11.41 46.555 11.82 46.045C12.23 45.535 12.78 44.685 13.04 44.145C13.67 42.845 14.36 38.895 13.96 38.895L13.97 38.915ZM74.96 38.915C74.77 38.915 74.86 40.605 75.13 42.015C75.45 43.675 75.82 44.465 77.04 46.095C78.13 47.545 80.53 49.505 80.77 49.135C80.86 48.995 80.93 47.935 80.93 46.765C80.93 45.045 80.85 44.425 80.52 43.535C79.95 42.005 78.44 40.525 76.52 39.615C75.71 39.235 75.01 38.925 74.96 38.925V38.915ZM88.89 39.165C88.83 39.165 88.76 39.185 88.67 39.215C87.33 39.625 84.89 41.325 84.22 42.325C83.54 43.325 83.38 44.145 83.27 46.995L83.17 49.655L83.71 49.165C84.01 48.895 84.56 48.485 84.94 48.265C85.88 47.705 87.19 46.265 87.9 45.005C88.72 43.555 89.1 42.145 89.1 40.495C89.1 39.475 89.1 39.195 88.92 39.175C88.92 39.175 88.91 39.175 88.9 39.175L88.89 39.165ZM36.04 41.145L34.72 41.265C33.99 41.335 33.36 41.435 33.31 41.485C33.26 41.535 33.4 41.965 33.63 42.425C34 43.185 34.11 43.275 34.69 43.275C35.04 43.275 35.6 43.225 35.93 43.155C36.59 43.025 36.65 42.795 36.29 41.795L36.05 41.145H36.04ZM36.98 44.895C36.57 44.895 35.26 45.155 35.03 45.305C35 45.325 35.16 45.775 35.39 46.305C35.79 47.235 35.84 47.275 36.54 47.275H37.28V46.145C37.28 45.525 37.2 44.965 37.1 44.905C37.08 44.905 37.04 44.885 36.98 44.895ZM62.26 45.565C61.58 45.565 60.62 46.395 60.62 46.985C60.62 47.635 61.54 48.775 62.08 48.785C62.21 48.785 62.61 48.525 62.98 48.205C63.48 47.765 63.65 47.465 63.65 47.025C63.65 46.245 62.99 45.565 62.25 45.565H62.26ZM27.03 45.575C26.55 45.575 26.1 45.905 25.78 46.515C25.52 47.025 25.52 47.135 25.78 47.635C26.08 48.225 26.75 48.785 27.15 48.785C27.28 48.785 27.69 48.525 28.06 48.195C28.89 47.465 28.93 46.865 28.18 46.115C27.81 45.745 27.41 45.565 27.04 45.575H27.03ZM74.81 48.405C74.7 48.405 74.66 49.445 74.71 51.105C74.78 53.485 74.85 53.955 75.29 54.995C76.02 56.745 77.99 59.945 78.2 59.735C78.24 59.695 78.5 59.025 78.76 58.255C79.49 56.155 79.57 54.425 79.02 52.875C78.78 52.185 78.33 51.325 78.02 50.955C77.43 50.245 75.11 48.405 74.8 48.405H74.81ZM13.97 48.645C13.97 48.645 13.94 48.645 13.93 48.645C13.48 48.705 12.2 49.525 11.33 50.345C10.77 50.875 10.09 51.775 9.8 52.365C9.35 53.275 9.28 53.655 9.28 55.045C9.28 56.585 9.42 57.145 10.3 59.475C10.41 59.765 10.59 59.955 10.69 59.895C10.79 59.835 11.39 58.905 12.02 57.845C13.6 55.175 14.12 53.455 14.15 50.835C14.15 49.705 14.12 48.735 14.06 48.675C14.05 48.665 14.03 48.655 14.01 48.645C14 48.645 13.99 48.645 13.97 48.645ZM44.46 49.355C39.17 49.355 34.7 49.405 34.54 49.475C34.22 49.595 34.12 50.775 34.39 51.205C34.51 51.385 36.73 51.455 44.02 51.495C49.24 51.525 53.69 51.565 53.92 51.595C54.15 51.625 54.47 51.505 54.63 51.345C55.07 50.905 55.01 50.015 54.51 49.665C54.14 49.405 52.87 49.365 44.46 49.365V49.355ZM0.4 50.575C0.32 50.575 0.26 50.575 0.22 50.605C-0.12 50.815 0.81 54.165 1.52 55.295C2.18 56.335 3.58 57.805 4.4 58.325C5.4 58.945 6.92 59.585 7.44 59.595C7.83 59.595 7.88 59.535 7.78 59.085C7.43 57.395 6.53 54.445 6.18 53.895C5.6 52.955 4.66 52.125 3.51 51.525C2.6 51.055 0.98 50.575 0.4 50.575ZM88.77 50.685C88.77 50.685 88.73 50.685 88.71 50.685C87.61 50.745 84.17 52.065 83.31 52.845C82.4 53.665 81.71 55.115 81.2 57.285C80.96 58.295 80.7 59.285 80.63 59.485C80.51 59.785 80.56 59.815 80.95 59.705C81.2 59.635 82.11 59.235 82.97 58.825C84.8 57.955 86.6 56.375 87.53 54.815C88.22 53.675 89.22 50.935 89.03 50.745C88.99 50.705 88.9 50.685 88.77 50.685ZM53.2 53.535H44.52C34.7 53.535 35.07 53.495 33.42 55.075C32.5 55.965 32.14 57.005 32.14 58.745V59.585L44.34 59.485C51.05 59.435 56.61 59.315 56.69 59.235C56.95 58.975 56.47 56.915 55.97 56.155C55.71 55.765 54.98 55.015 54.35 54.485L53.2 53.525V53.535ZM15.93 56.895L15.29 57.635C14.94 58.045 14.31 59.055 13.9 59.895C13.25 61.195 13.14 61.605 13.12 62.745C13.09 64.305 13.49 65.665 14.45 67.295C15.54 69.135 15.77 69.295 16.16 68.435C16.64 67.385 17.35 64.555 17.45 63.305C17.58 61.705 17.2 59.735 16.45 58.055L15.93 56.885V56.895ZM72.71 56.955C72.55 56.955 72.21 57.725 71.81 58.995C70.99 61.595 70.96 63.265 71.71 65.745C72.24 67.535 72.7 68.725 72.84 68.725C72.89 68.725 73.33 68.145 73.83 67.445C74.33 66.745 74.89 65.755 75.08 65.255C75.51 64.145 75.54 62.135 75.14 60.805C74.81 59.685 73.08 56.945 72.71 56.945V56.955ZM44.69 61.505C37.91 61.505 32.23 61.555 32.06 61.625C31.83 61.715 31.76 62.015 31.76 62.845V63.955L32.85 64.015C33.45 64.045 39.13 64.075 45.47 64.075H57V61.515H44.68L44.69 61.505ZM3.95 62.085C3.95 62.085 3.86 62.085 3.82 62.085C3.4 62.085 3.08 62.145 2.94 62.235C2.5 62.515 3.61 64.465 5 65.875C6.76 67.655 8.76 68.665 11.55 69.185C13.26 69.505 13.16 69.495 13.16 69.345C13.16 69.275 12.92 68.825 12.62 68.345C12.32 67.865 11.77 66.915 11.4 66.245C10.19 64.025 8.64 62.825 6.39 62.355C5.54 62.175 4.63 62.085 3.95 62.085ZM84.99 62.285C84.9 62.285 84.81 62.285 84.71 62.285C83.41 62.315 81.54 62.495 80.83 62.715C79.13 63.245 77.97 64.435 76.32 67.315C75.28 69.115 75.24 69.355 75.96 69.225C76.25 69.175 76.86 69.065 77.33 68.995C79.53 68.665 82.02 67.465 83.41 66.065C84.43 65.045 86.07 62.795 86.07 62.405C86.07 62.325 85.75 62.285 85.25 62.275C85.17 62.275 85.08 62.275 84.99 62.275V62.285ZM19.93 65.015C19.88 65.015 19.84 65.055 19.8 65.105C19.46 65.655 19.19 68.035 19.27 69.735C19.36 71.685 19.7 72.545 20.9 73.875C21.94 75.025 23.96 76.495 24.5 76.495C24.92 76.495 24.96 76.435 24.87 75.875C24.5 73.555 23.93 70.755 23.68 70.005C23.3 68.845 22.2 67.175 20.97 65.865C20.38 65.235 20.1 64.995 19.94 65.005L19.93 65.015ZM68.51 65.175C68.51 65.175 68.48 65.175 68.47 65.175C68 65.355 65.51 68.145 65.08 69.005C64.66 69.835 64.58 70.365 64.41 73.065C64.3 74.775 64.21 76.225 64.2 76.285C64.15 76.675 64.31 76.675 64.98 76.285C65.39 76.035 66.35 75.285 67.1 74.615C68.96 72.945 69.46 71.885 69.42 69.665C69.4 68.265 68.86 65.495 68.54 65.175C68.54 65.175 68.53 65.175 68.51 65.175ZM44.88 70.845C44.88 70.845 44.82 70.845 44.8 70.845C43.81 70.875 43.05 71.455 41.33 73.025C40.38 73.895 37.85 76.835 37.85 77.075C37.85 77.455 38.74 77.835 39.66 77.835C40.91 77.835 41.94 77.195 43.43 75.495C44.66 74.085 45.19 73.845 46.08 74.275C47.05 74.745 49.43 76.765 50.84 78.325C52.16 79.785 54.24 81.635 54.56 81.635C54.65 81.635 54.82 81.465 54.93 81.265C55.28 80.615 55.14 78.925 54.57 76.945C54.27 75.885 53.94 74.875 53.85 74.715C53.62 74.295 47.74 71.445 46.4 71.095C45.79 70.935 45.31 70.845 44.89 70.845H44.88ZM12.64 72.025C12.59 72.025 12.54 72.025 12.48 72.025C11.79 72.035 11.1 72.195 9.92 72.535C8.06 73.075 7.99 73.155 8.78 73.845C10.51 75.355 12.51 76.525 14.14 76.985C15.48 77.365 20.05 77.275 20.46 76.865C20.7 76.625 20.63 76.505 19.84 75.885C19.34 75.495 18.38 74.705 17.7 74.125C16.13 72.775 15.39 72.405 13.81 72.145C13.36 72.075 12.99 72.025 12.62 72.025H12.64ZM75.45 72.145C74.17 72.145 73.8 72.245 72.82 72.705C72.1 73.045 71.08 73.785 70.26 74.555C69.5 75.265 68.63 76.035 68.32 76.255C67.62 76.765 67.79 76.985 69.08 77.225C70.54 77.505 72.08 77.475 73.69 77.155C75.48 76.795 77.05 76.075 78.61 74.925C79.75 74.075 80.53 73.185 80.32 72.975C79.99 72.645 77.23 72.145 75.72 72.145C75.63 72.145 75.54 72.145 75.45 72.145ZM29 72.385H28.99C28.76 72.615 28.1 77.515 27.88 80.605L27.76 82.335L29.15 82.815C30.87 83.405 30.78 83.385 30.93 83.145C31 83.035 31.22 81.575 31.42 79.905C31.75 77.125 32.12 75.045 32.45 74.195C32.54 73.965 32.47 73.825 32.23 73.745C32.04 73.675 31.25 73.335 30.47 72.985C29.74 72.655 29.12 72.405 29.01 72.405L29 72.385ZM59.79 72.395C59.67 72.395 58.87 72.715 57.93 73.115L56.11 73.895L56.36 74.725C56.78 76.125 57.05 79.325 56.91 81.285C56.84 82.295 56.83 83.205 56.89 83.305C56.96 83.415 57.34 83.415 57.91 83.305C58.41 83.205 59.11 83.065 59.47 82.995C59.98 82.895 60.16 82.745 60.29 82.305C60.57 81.365 60.15 72.755 59.81 72.415C59.81 72.415 59.81 72.415 59.79 72.415V72.395ZM33.8 74.705L32.62 81.355C32.62 81.355 35 80.605 35.54 81.045C36.09 81.485 37.08 82.105 37.62 82.435C37.95 82.635 39.09 82.385 40.03 82.835C40.62 83.125 41.18 84.055 41.27 84.395C41.49 85.265 42.72 85.065 43.37 85.835C43.66 86.165 43.89 86.725 44.07 87.255C44.12 87.945 44.16 88.405 44.16 88.405C45.44 89.525 46.09 88.925 46.81 89.805C47.35 89.925 48.15 90.055 48.6 89.835C49.31 89.485 50.59 88.495 50.73 88.365C50.87 88.225 50.99 87.785 51.18 87.645C51.37 87.505 51.96 87.215 52.37 86.915C52.59 86.475 52.89 86.395 53.33 86.165C53.39 86.055 53.42 85.915 53.4 85.755C53.32 85.125 52.5 83.295 52.25 82.425C52.19 82.205 52.2 82.055 52.14 81.825C52.09 81.585 47.66 77.375 46.81 76.925C43.81 75.415 41.6 79.775 38.77 78.905C37.02 78.145 35.58 76.205 35.58 76.205L33.78 74.695L33.8 74.705ZM23.92 79.165C21.36 79.165 18.92 80.115 17.33 81.735C16.34 82.745 16.39 82.835 18.23 83.465C19.81 84.005 22.48 84.075 23.83 83.615L24.7 83.325L24.8 81.675C24.86 80.765 24.96 79.835 25.03 79.595C25.16 79.185 25.12 79.165 23.92 79.165ZM63.18 79.255L63.27 80.015C63.39 81.075 63.36 82.215 63.19 82.705C63.07 83.045 63.15 83.175 63.65 83.425C65.04 84.145 67.04 84.245 69.57 83.725C71.61 83.305 72.39 83.045 72.39 82.775C72.39 82.455 70.04 80.785 68.49 79.995C67.07 79.275 66.96 79.245 65.1 79.245H63.18V79.255ZM34.95 82.195C34.15 82.195 31.95 84.455 31.95 85.275C31.95 85.865 32.68 86.755 33.17 86.755C33.33 86.755 33.91 86.385 34.46 85.935C35.54 85.055 36.32 84.045 36.32 83.525C36.32 82.925 35.58 82.195 34.95 82.195ZM39.09 83.595C38.68 83.615 38.21 84.125 36.48 86.045C35.4 87.245 34.99 87.845 34.99 88.215C34.99 88.825 35.48 89.415 35.98 89.415C36.18 89.415 37.14 88.685 38.12 87.785C39.09 86.885 40.02 85.895 40.17 85.575C40.55 84.795 40.28 84.025 39.52 83.715C39.35 83.645 39.22 83.595 39.09 83.605V83.595ZM42.03 86.185C41.69 86.185 38.41 89.395 38.2 89.945C37.96 90.565 38.45 91.695 38.96 91.695C39.17 91.695 39.67 91.425 40.06 91.095C41.77 89.655 43.34 87.985 43.34 87.615C43.34 87.185 42.43 86.195 42.02 86.195L42.03 86.185ZM44.32 89.435C43.91 89.435 43.47 89.785 42.73 90.545C41.83 91.465 41.63 91.795 41.63 92.315C41.63 93.355 42.14 93.645 43.12 93.135C43.86 92.755 45.2 91.245 45.35 90.635C45.45 90.225 45.39 90.045 45.05 89.765C44.78 89.545 44.56 89.435 44.31 89.445L44.32 89.435Z" fill="#28374E"/>
</g>
<path d="M128.4 29.5C137.75 29.5 143.6 34.35 143.6 42.2C143.6 50 137.75 54.85 128.4 54.85H121.35V64.5H113.25V29.5H128.4ZM127.95 48.25C132.9 48.25 135.4 46 135.4 42.2C135.4 38.35 132.9 36.1 127.95 36.1H121.35V48.25H127.95ZM156.283 41.15C158.183 38.55 161.383 37.2 165.533 37.2V44.4C164.883 44.35 164.383 44.3 163.783 44.3C159.483 44.3 156.633 46.65 156.633 51.8V64.5H148.833V37.6H156.283V41.15ZM182.727 64.9C174.177 64.9 167.927 59.15 167.927 51.05C167.927 42.95 174.177 37.2 182.727 37.2C191.277 37.2 197.477 42.95 197.477 51.05C197.477 59.15 191.277 64.9 182.727 64.9ZM182.727 58.5C186.627 58.5 189.577 55.7 189.577 51.05C189.577 46.4 186.627 43.6 182.727 43.6C178.827 43.6 175.827 46.4 175.827 51.05C175.827 55.7 178.827 58.5 182.727 58.5ZM206.94 33.85C204.04 33.85 202.09 31.95 202.09 29.5C202.09 27.05 204.04 25.15 206.94 25.15C209.84 25.15 211.79 26.95 211.79 29.35C211.79 31.95 209.84 33.85 206.94 33.85ZM200.69 74.6C198.29 74.6 195.94 74.15 194.44 73.1L196.54 67.45C197.39 68.05 198.54 68.4 199.84 68.4C201.79 68.4 203.04 67.15 203.04 64.5V37.6H210.84V64.45C210.84 70.65 207.19 74.6 200.69 74.6ZM244.372 51.15C244.372 51.75 244.272 52.6 244.222 53.25H223.872C224.622 56.6 227.472 58.65 231.572 58.65C234.422 58.65 236.472 57.8 238.322 56.05L242.472 60.55C239.972 63.4 236.222 64.9 231.372 64.9C222.072 64.9 216.022 59.05 216.022 51.05C216.022 43 222.172 37.2 230.372 37.2C238.272 37.2 244.372 42.5 244.372 51.15ZM230.422 43.1C226.872 43.1 224.322 45.25 223.772 48.7H237.022C236.472 45.3 233.922 43.1 230.422 43.1ZM262.565 64.9C253.815 64.9 247.565 59.15 247.565 51.05C247.565 42.95 253.815 37.2 262.565 37.2C268.215 37.2 272.665 39.65 274.615 44.05L268.565 47.3C267.115 44.75 264.965 43.6 262.515 43.6C258.565 43.6 255.465 46.35 255.465 51.05C255.465 55.75 258.565 58.5 262.515 58.5C264.965 58.5 267.115 57.4 268.565 54.8L274.615 58.1C272.665 62.4 268.215 64.9 262.565 64.9ZM294.747 57.7L296.847 63.2C295.247 64.35 292.897 64.9 290.497 64.9C284.147 64.9 280.447 61.65 280.447 55.25V44.2H276.297V38.2H280.447V31.65H288.247V38.2H294.947V44.2H288.247V55.15C288.247 57.45 289.497 58.7 291.597 58.7C292.747 58.7 293.897 58.35 294.747 57.7ZM332.686 65.1C321.836 65.1 313.736 57.55 313.736 47C313.736 36.45 321.836 28.9 332.736 28.9C338.786 28.9 343.836 31.1 347.136 35.1L341.936 39.9C339.586 37.2 336.636 35.8 333.136 35.8C326.586 35.8 321.936 40.4 321.936 47C321.936 53.6 326.586 58.2 333.136 58.2C336.636 58.2 339.586 56.8 341.936 54.05L347.136 58.85C343.836 62.9 338.786 65.1 332.686 65.1ZM363.928 64.9C355.378 64.9 349.128 59.15 349.128 51.05C349.128 42.95 355.378 37.2 363.928 37.2C372.478 37.2 378.678 42.95 378.678 51.05C378.678 59.15 372.478 64.9 363.928 64.9ZM363.928 58.5C367.828 58.5 370.778 55.7 370.778 51.05C370.778 46.4 367.828 43.6 363.928 43.6C360.028 43.6 357.028 46.4 357.028 51.05C357.028 55.7 360.028 58.5 363.928 58.5ZM400.241 37.2C406.591 37.2 411.391 40.9 411.391 49.1V64.5H403.591V50.3C403.591 45.95 401.591 43.95 398.141 43.95C394.391 43.95 391.691 46.25 391.691 51.2V64.5H383.891V37.6H391.341V40.75C393.441 38.45 396.591 37.2 400.241 37.2ZM427.512 64.9C422.962 64.9 418.362 63.65 415.862 62L418.462 56.4C420.862 57.95 424.512 59 427.812 59C431.412 59 432.762 58.05 432.762 56.55C432.762 52.15 416.512 56.65 416.512 45.9C416.512 40.8 421.112 37.2 428.962 37.2C432.662 37.2 436.762 38.05 439.312 39.55L436.712 45.1C434.062 43.6 431.412 43.1 428.962 43.1C425.462 43.1 423.962 44.2 423.962 45.6C423.962 50.2 440.212 45.75 440.212 56.35C440.212 61.35 435.562 64.9 427.512 64.9ZM464.324 37.6H472.124V64.5H464.724V61.3C462.674 63.65 459.674 64.9 456.374 64.9C449.624 64.9 444.874 61.1 444.874 52.8V37.6H452.674V51.65C452.674 56.15 454.674 58.15 458.124 58.15C461.724 58.15 464.324 55.85 464.324 50.9V37.6ZM479.35 64.5V27.4H487.15V64.5H479.35ZM511.593 57.7L513.693 63.2C512.093 64.35 509.743 64.9 507.343 64.9C500.993 64.9 497.293 61.65 497.293 55.25V44.2H493.143V38.2H497.293V31.65H505.093V38.2H511.793V44.2H505.093V55.15C505.093 57.45 506.343 58.7 508.443 58.7C509.593 58.7 510.743 58.35 511.593 57.7ZM528.921 37.2C537.121 37.2 541.871 41 541.871 49.15V64.5H534.571V61.15C533.121 63.6 530.321 64.9 526.371 64.9C520.071 64.9 516.321 61.4 516.321 56.75C516.321 52 519.671 48.7 527.871 48.7H534.071C534.071 45.35 532.071 43.4 527.871 43.4C525.021 43.4 522.071 44.35 520.121 45.9L517.321 40.45C520.271 38.35 524.621 37.2 528.921 37.2ZM528.321 59.65C530.921 59.65 533.171 58.45 534.071 56V53.25H528.721C525.071 53.25 523.921 54.6 523.921 56.4C523.921 58.35 525.571 59.65 528.321 59.65ZM565.28 37.2C571.63 37.2 576.43 40.9 576.43 49.1V64.5H568.63V50.3C568.63 45.95 566.63 43.95 563.18 43.95C559.43 43.95 556.73 46.25 556.73 51.2V64.5H548.93V37.6H556.38V40.75C558.48 38.45 561.63 37.2 565.28 37.2ZM598.751 57.7L600.851 63.2C599.251 64.35 596.901 64.9 594.501 64.9C588.151 64.9 584.451 61.65 584.451 55.25V44.2H580.301V38.2H584.451V31.65H592.251V38.2H598.951V44.2H592.251V55.15C592.251 57.45 593.501 58.7 595.601 58.7C596.751 58.7 597.901 58.35 598.751 57.7Z" fill="black"/>
<defs>
<clipPath id="clip0_44_2428">
<rect width="89.1" height="92.75" fill="white" transform="translate(0 0.625)"/>
</clipPath>
</defs>
</svg>
