<svg width="320" height="121" viewBox="0 0 320 121" fill="none" xmlns="http://www.w3.org/2000/svg">
<mask id="mask0_476_365" style="mask-type:luminance" maskUnits="userSpaceOnUse" x="0" y="0" width="120" height="121">
<path d="M0 0.5H120V120.5H0V0.5Z" fill="white"/>
</mask>
<g mask="url(#mask0_476_365)">
<path fill-rule="evenodd" clip-rule="evenodd" d="M60.1101 73.6411H120V60.2608H119.994C119.989 59.1937 119.956 58.1351 119.896 57.0808C119.873 56.651 119.826 56.2276 119.795 55.7999C119.746 55.186 119.704 54.572 119.638 53.9622C119.581 53.4414 119.505 52.9291 119.435 52.4125C119.367 51.9044 119.303 51.392 119.223 50.8881C119.136 50.3462 119.032 49.8148 118.929 49.2791C118.84 48.8006 118.751 48.3222 118.649 47.8479C118.615 47.6849 118.59 47.5198 118.554 47.3567H118.535C112.543 20.5452 88.6196 0.5 60 0.5C26.8624 0.5 0 27.3624 0 60.5C0 93.6376 26.8624 120.5 60 120.5H120V106.933C120 99.445 113.93 93.373 106.442 93.373H60C41.8857 93.3243 27.2138 78.627 27.2138 60.5C27.2138 42.3433 41.9323 27.627 60.0868 27.627C73.5667 27.627 85.1433 35.7463 90.2138 47.3589H60.1101C52.8525 47.3589 46.9689 53.2424 46.9689 60.5C46.9689 67.7195 52.7932 73.5776 60 73.6369V73.6411H60.1101Z" fill="#008DF8"/>
</g>
<mask id="mask1_476_365" style="mask-type:luminance" maskUnits="userSpaceOnUse" x="60" y="0" width="48" height="48">
<path d="M60.4746 27.6038L60.5593 27.5995C73.8042 27.5995 85.1775 35.596 90.157 47.035C105.257 47.035 112.717 28.7174 102.002 18.0448C91.349 7.43791 76.675 0.881104 60.4746 0.881104V27.6038Z" fill="white"/>
</mask>
<g mask="url(#mask1_476_365)">
<path fill-rule="evenodd" clip-rule="evenodd" d="M60.4746 27.6038L60.5593 27.5995C73.8042 27.5995 85.1775 35.596 90.157 47.035C105.257 47.035 112.717 28.7174 102.002 18.0448C91.349 7.43791 76.675 0.881104 60.4746 0.881104V27.6038Z" fill="url(#paint0_linear_476_365)"/>
</g>
<mask id="mask2_476_365" style="mask-type:luminance" maskUnits="userSpaceOnUse" x="0" y="0" width="320" height="120">
<path d="M0 119.826H319.954V0.5H0V119.826Z" fill="white"/>
</mask>
<g mask="url(#mask2_476_365)">
<path fill-rule="evenodd" clip-rule="evenodd" d="M168.923 66.9189H196.641C195.49 59.742 190.157 55.0999 182.835 55.0999C175.41 55.0999 170.077 59.6368 168.923 66.9189ZM211.702 76.521H169.134C170.702 83.5947 176.664 87.9189 185.239 87.9189C189.254 87.9189 192.509 87.1062 195.389 85.4473C197.984 83.9525 201.269 84.521 203.294 86.7357L208.041 91.9294C202.812 97.9441 194.968 101.108 184.82 101.108C165.368 101.108 152.713 88.7631 152.713 71.8789C152.713 54.8894 165.576 42.6452 182.73 42.6452C199.256 42.6452 212.014 53.8325 212.014 72.0894C212.014 73.3546 211.808 75.1504 211.702 76.521ZM240.78 44.7568H248.711C252.3 44.7568 255.212 47.6936 255.212 51.3189V57.4199H241.197V100.266H231.368C227.784 100.266 224.881 97.3357 224.881 93.721V57.4199H222.688C219.104 57.4199 216.199 54.4894 216.199 50.8725V44.7568H224.881V42.2241C224.881 29.4536 232.62 21.1168 246.637 21.1168C251.239 21.1168 256.048 22.0662 259.083 24.1778L254.795 36.1041C253.016 34.8368 250.715 34.0978 248.206 34.0978C243.395 34.0978 240.778 36.7357 240.778 42.3294L240.78 44.7568ZM303.953 71.8789C303.953 62.0641 297.677 56.1525 289.622 56.1525C281.467 56.1525 275.189 62.0641 275.189 71.8789C275.189 81.6936 281.467 87.6031 289.622 87.6031C297.677 87.6031 303.953 81.6957 303.953 71.8789ZM319.953 28.5104V100.266H310.856C307.275 100.266 304.372 97.3357 304.372 93.7231C300.292 98.6831 294.33 101.11 286.799 101.11C270.9 101.11 258.664 89.7125 258.664 71.8789C258.664 54.0431 270.9 42.6452 286.799 42.6452C293.704 42.6452 299.559 44.862 303.639 49.5062V21.961H313.464C317.05 21.961 319.953 24.8936 319.953 28.5104Z" fill="#002F59"/>
</g>
<defs>
<linearGradient id="paint0_linear_476_365" x1="60.4746" y1="2308.53" x2="4718.19" y2="2308.53" gradientUnits="userSpaceOnUse">
<stop stop-color="#008CF7"/>
<stop offset="1" stop-color="#002F59"/>
</linearGradient>
</defs>
</svg>
